<svg width="111" height="110" viewBox="0 0 111 110" fill="none" xmlns="http://www.w3.org/2000/svg">
<path fill-rule="evenodd" clip-rule="evenodd" d="M62.76 10V16C62.76 19.866 59.626 23 55.76 23C51.894 23 48.76 19.866 48.76 16V10C48.76 6.134 51.894 3 55.76 3C59.626 3 62.76 6.134 62.76 10ZM82.36 56.6C82.36 59.5595 81.861 62.4024 80.9424 65.0492C80.5537 65.0166 80.1603 65 79.7632 65C73.8186 65 68.7444 68.726 66.7483 73.9699C63.1147 74.9055 59.9893 77.1063 57.8694 80.0745C56.5525 79.717 55.1669 79.5263 53.7368 79.5263C51.5712 79.5263 49.5077 79.9638 47.6299 80.7552C37.8256 77.1129 30.84 67.6722 30.84 56.6C30.84 42.3731 42.3732 30.84 56.6 30.84C70.8269 30.84 82.36 42.3731 82.36 56.6ZM59.7567 109.808C60.1863 109.63 60.6063 109.433 61.0157 109.219C60.6196 109.455 60.1984 109.653 59.7567 109.808ZM89.6644 32.2472L93.9071 28.0046C96.6407 25.2709 96.6407 20.8388 93.9071 18.1051C91.1733 15.3714 86.7412 15.3714 84.0076 18.1051L79.7649 22.3477C77.0312 25.0814 77.0312 29.5136 79.7649 32.2472C82.4985 34.9809 86.9308 34.9809 89.6644 32.2472ZM97.2 62.76H103.2C107.066 62.76 110.2 59.626 110.2 55.76C110.2 51.894 107.066 48.76 103.2 48.76H97.2C93.334 48.76 90.2 51.894 90.2 55.76C90.2 59.626 93.334 62.76 97.2 62.76ZM23.5358 80.9528L19.2931 85.1954C16.5594 87.9291 16.5594 92.3613 19.2931 95.0949C22.0267 97.8286 26.4589 97.8286 29.1926 95.0949L33.4352 90.8523C36.1689 88.1186 36.1689 83.6865 33.4352 80.9528C30.7015 78.2191 26.2694 78.2191 23.5358 80.9528ZM16 50.44H10C6.13403 50.44 3 53.574 3 57.44C3 61.306 6.13403 64.44 10 64.44H16C19.866 64.44 23 61.306 23 57.44C23 53.574 19.866 50.44 16 50.44ZM32.2472 23.5356L28.0046 19.293C25.2709 16.5594 20.8387 16.5594 18.1051 19.293C15.3715 22.0267 15.3715 26.4588 18.1051 29.1925L22.3478 33.4352C25.0814 36.1688 29.5135 36.1688 32.2472 33.4352C34.981 30.7015 34.981 26.2693 32.2472 23.5356ZM93.3433 80.2619C92.202 74.4137 87.0506 70 80.8684 70C75.4408 70 70.8077 73.402 68.9853 78.1899C65.6677 79.0442 62.814 81.0536 60.8784 83.7637C59.676 83.4373 58.411 83.2632 57.1052 83.2632C49.1698 83.2632 42.7368 89.6961 42.7368 97.6316C42.7368 98.3924 42.7959 99.1394 42.9099 99.8683C43.1115 101.158 44.2995 102 45.6054 102H93.8019C94.4136 102 95.0174 101.821 95.4927 101.436C98.3706 99.1059 100.21 95.5441 100.21 91.5526C100.21 86.6396 97.423 82.3776 93.3433 80.2619Z" fill="white"/>
</svg>
