<svg width="110" height="110" viewBox="0 0 110 110" fill="none" xmlns="http://www.w3.org/2000/svg">
<path fill-rule="evenodd" clip-rule="evenodd" d="M46.9096 33V27C46.9096 23.134 50.0436 20 53.9096 20C57.7756 20 60.9096 23.134 60.9096 27V33C60.9096 36.866 57.7756 40 53.9096 40C50.0436 40 46.9096 36.866 46.9096 33ZM16.8593 44.8492L21.1019 49.0919C23.8356 51.8256 28.2677 51.8256 31.0014 49.0919C33.7351 46.3582 33.7351 41.9261 31.0014 39.1924L26.7588 34.9497C24.0251 32.2161 19.5929 32.2161 16.8593 34.9497C14.1256 37.6834 14.1256 42.1156 16.8593 44.8492ZM52.9096 59C44.8374 59 36.9779 60.2709 29.4284 62.6772C33.6084 53.4063 42.5517 47 52.9096 47C63.2676 47 72.2108 53.4063 76.3909 62.6772C68.8413 60.2709 60.9818 59 52.9096 59ZM85.7589 49.0919L90.0015 44.8493C92.7352 42.1156 92.7352 37.6834 90.0015 34.9498C87.2678 32.2161 82.8357 32.2161 80.102 34.9498L75.8594 39.1924C73.1257 41.9261 73.1257 46.3582 75.8594 49.0919C78.593 51.8256 83.0252 51.8256 85.7589 49.0919ZM52.9096 64C35.5517 64 19.2267 70.479 5.00001 81.8763C5.72542 83.9014 6.57058 85.8695 7.52695 87.772C20.9505 76.453 36.4295 70 52.9096 70C70.5156 70 86.979 77.3648 101.014 90.1595C102.068 88.3062 103.014 86.3831 103.842 84.3989C88.9244 71.4398 71.51 64 52.9096 64Z" fill="white"/>
</svg>
