<svg width="110" height="110" viewBox="0 0 110 110" fill="none" xmlns="http://www.w3.org/2000/svg">
<path fill-rule="evenodd" clip-rule="evenodd" d="M68.5556 10C75.1105 10 81.3381 11.4015 86.955 13.9212C78.1641 19.0706 71.2766 27.118 67.604 36.7521C65.4509 32.7334 61.2114 30 56.3333 30C51.2439 30 46.8493 32.9756 44.7946 37.2819C44.515 37.8678 44.0105 38.3205 43.3952 38.5273C40.9332 39.3548 38.7675 40.8276 37.0993 42.7447C36.5503 43.3757 35.7038 43.6776 34.8793 43.5377C34.0877 43.4033 33.2743 43.3333 32.4445 43.3333C29.5171 43.3333 26.7932 44.2041 24.5175 45.7008C28.8018 25.3099 46.8908 10 68.5556 10ZM56.3333 37.7778C62.2123 37.7778 67.164 41.7481 68.6533 47.1538C68.8154 47.7419 69.1951 48.2496 69.7139 48.5706C73.3533 50.8225 75.7778 54.8503 75.7778 59.4445C75.7778 63.6077 73.7867 67.3059 70.7049 69.6388C70.3837 69.8819 69.9875 70 69.5846 70H68.08C72.4776 80.6071 80.8152 89.1678 91.2673 93.8565C84.6008 97.7616 76.8396 100 68.5556 100C48.9623 100 32.2937 87.4779 26.1162 70H20.1523C19.2846 70 18.5019 69.443 18.3202 68.5945C18.1104 67.6147 18 66.598 18 65.5556C18 57.5781 24.467 51.1111 32.4444 51.1111C33.2742 51.1111 34.0877 51.1811 34.8792 51.3155C35.7038 51.4554 36.5503 51.1534 37.0993 50.5225C38.7675 48.6054 40.9331 47.1326 43.3952 46.3051C44.0104 46.0983 44.515 45.6455 44.7946 45.0597C46.8493 40.7533 51.2438 37.7778 56.3333 37.7778Z" fill="white"/>
</svg>
