<svg width="110" height="110" viewBox="0 0 110 110" fill="none" xmlns="http://www.w3.org/2000/svg">
<path d="M81.2141 64.9057H27.6762C26.829 64.9057 26.1311 64.2344 26.1295 63.3872C26.113 54.7047 28.5573 45.6238 35.5912 42.1069C39.0471 40.379 48.4371 32.585 53.1338 28.2656C53.7825 27.6689 54.7928 27.7015 55.4175 28.3233C58.5658 31.4569 65.1133 37.1572 73.1698 41.7925C81.6482 46.6705 83.0935 57.5539 82.729 63.5259C82.6806 64.3181 82.0077 64.9057 81.2141 64.9057Z" fill="white"/>
<path d="M27.5723 69.4654C26.704 69.4654 26 70.1694 26 71.0377V103.428C26 104.296 26.704 105 27.5723 105H38.8931V86.761C38.8931 81.5508 43.1168 77.327 48.327 77.327H60.2767C65.487 77.327 69.7107 81.5508 69.7107 86.761V105H81.3459C82.2143 105 82.9182 104.296 82.9182 103.428V71.0377C82.9182 70.1694 82.2143 69.4654 81.3459 69.4654H27.5723Z" fill="white"/>
<path d="M62.9868 19.7368C62.3319 19.8777 61.6508 19.952 60.9517 19.952C55.8361 19.952 51.6892 15.9732 51.6892 11.065C51.6892 8.72051 52.6354 6.58804 54.1815 5C49.5333 5.56147 45.9314 9.51981 45.9314 14.3194C45.9314 19.5041 50.1344 23.7071 55.3191 23.7071C58.4859 23.7071 61.2866 22.1389 62.9868 19.7368Z" fill="white"/>
</svg>
