<svg width="110" height="110" viewBox="0 0 110 110" fill="none" xmlns="http://www.w3.org/2000/svg">
<path fill-rule="evenodd" clip-rule="evenodd" d="M48 17V23C48 26.866 51.134 30 55 30C58.866 30 62 26.866 62 23V17C62 13.134 58.866 10 55 10C51.134 10 48 13.134 48 17ZM22.1923 39.0919L17.9497 34.8492C15.216 32.1156 15.216 27.6834 17.9497 24.9497C20.6833 22.2161 25.1155 22.2161 27.8492 24.9497L32.0918 29.1924C34.8255 31.9261 34.8255 36.3582 32.0918 39.0919C29.3581 41.8256 24.926 41.8256 22.1923 39.0919ZM79.4799 70C79.821 68.2229 80 66.3836 80 64.5C80 49.3122 68.3594 37 54 37C39.6406 37 28 49.3122 28 64.5C28 66.3836 28.179 68.2229 28.5201 70H79.4799ZM29 75.5L52 88L42 89L60.5 101L55 95.5L66.5 89L55 82.5L79 75.5H29ZM10 70H16C19.866 70 23 66.866 23 63C23 59.134 19.866 56 16 56H10C6.13401 56 3 59.134 3 63C3 66.866 6.13401 70 10 70ZM91.0919 34.8493L86.8492 39.0919C84.1156 41.8256 79.6834 41.8256 76.9497 39.0919C74.2161 36.3582 74.2161 31.9261 76.9497 29.1924L81.1924 24.9498C83.9261 22.2161 88.3582 22.2161 91.0919 24.9498C93.8256 27.6834 93.8256 32.1156 91.0919 34.8493ZM93 70H99C102.866 70 106 66.866 106 63C106 59.134 102.866 56 99 56H93C89.134 56 86 59.134 86 63C86 66.866 89.134 70 93 70Z" fill="white"/>
</svg>
