<svg width="110" height="110" viewBox="0 0 110 110" fill="none" xmlns="http://www.w3.org/2000/svg">
<path d="M60.76 16V22C60.76 25.866 57.626 29 53.76 29C49.894 29 46.76 25.866 46.76 22V16C46.76 12.134 49.894 9 53.76 9C57.626 9 60.76 12.134 60.76 16Z" fill="white"/>
<path d="M80.36 62.6C80.36 67.9526 78.7275 72.9239 75.9332 77.0431C69.1324 75.0622 61.9402 74 54.5 74C47.1207 74 39.9854 75.0448 33.234 76.9946C30.4598 72.8849 28.84 67.9316 28.84 62.6C28.84 48.3731 40.3732 36.84 54.6 36.84C68.8268 36.84 80.36 48.3731 80.36 62.6Z" fill="white"/>
<path d="M87.6644 38.2472L91.907 34.0046C94.6407 31.2709 94.6407 26.8388 91.907 24.1051C89.1734 21.3714 84.7412 21.3714 82.0076 24.1051L77.765 28.3477C75.0312 31.0814 75.0312 35.5136 77.765 38.2472C80.4986 40.9809 84.9307 40.9809 87.6644 38.2472Z" fill="white"/>
<path d="M101.2 68.76H95.2C91.334 68.76 88.2 65.626 88.2 61.76C88.2 57.894 91.334 54.76 95.2 54.76H101.2C105.066 54.76 108.2 57.894 108.2 61.76C108.2 65.626 105.066 68.76 101.2 68.76Z" fill="white"/>
<path d="M8 56.44H14C17.866 56.44 21 59.574 21 63.44C21 67.306 17.866 70.44 14 70.44H8C4.13403 70.44 1 67.306 1 63.44C1 59.574 4.13403 56.44 8 56.44Z" fill="white"/>
<path d="M30.2473 29.5356L26.0046 25.293C23.2709 22.5594 18.8387 22.5594 16.1051 25.293C13.3714 28.0267 13.3714 32.4588 16.1051 35.1925L20.3477 39.4352C23.0814 42.1688 27.5135 42.1688 30.2473 39.4352C32.9809 36.7015 32.9809 32.2693 30.2473 29.5356Z" fill="white"/>
<path d="M54.481 84.5C71.5543 84.5 87.0469 89.9166 98.423 101L102 97.3954C89.7083 85.3898 72.951 78 54.481 78C36.5257 78 20.1891 84.9836 8 96.4025L11.5792 100.009C22.8507 89.5116 37.9225 84.5 54.481 84.5Z" fill="white"/>
</svg>
