<svg width="108" height="106" viewBox="0 0 108 106" fill="none" xmlns="http://www.w3.org/2000/svg">
<path fill-rule="evenodd" clip-rule="evenodd" d="M59.76 7V13C59.76 16.866 56.626 20 52.76 20C48.894 20 45.76 16.866 45.76 13V7C45.76 3.13401 48.894 0 52.76 0C56.626 0 59.76 3.13401 59.76 7ZM79.36 53.6C79.36 67.8269 67.8269 79.36 53.6 79.36C39.3731 79.36 27.84 67.8269 27.84 53.6C27.84 39.3731 39.3731 27.84 53.6 27.84C67.8269 27.84 79.36 39.3731 79.36 53.6ZM86.6644 29.2472L90.9071 25.0046C93.6407 22.2709 93.6407 17.8388 90.9071 15.1051C88.1734 12.3714 83.7412 12.3714 81.0076 15.1051L76.7649 19.3477C74.0313 22.0814 74.0313 26.5136 76.7649 29.2472C79.4986 31.9809 83.9308 31.9809 86.6644 29.2472ZM100.2 59.76H94.2C90.334 59.76 87.2 56.626 87.2 52.76C87.2 48.894 90.334 45.76 94.2 45.76H100.2C104.066 45.76 107.2 48.894 107.2 52.76C107.2 56.626 104.066 59.76 100.2 59.76ZM77.9528 86.6644L82.1954 90.907C84.9291 93.6407 89.3612 93.6407 92.0949 90.907C94.8286 88.1733 94.8286 83.7412 92.0949 81.0075L87.8523 76.7649C85.1186 74.0312 80.6864 74.0312 77.9528 76.7649C75.2191 79.4985 75.2191 83.9307 77.9528 86.6644ZM47 99V93C47 89.134 50.134 86 54 86C57.866 86 61 89.134 61 93V99C61 102.866 57.866 106 54 106C50.134 106 47 102.866 47 99ZM21.1924 76.9498L16.9497 81.1924C14.2161 83.9261 14.2161 88.3582 16.9497 91.0919C19.6834 93.8256 24.1156 93.8256 26.8492 91.0919L31.0919 86.8493C33.8256 84.1156 33.8256 79.6834 31.0919 76.9498C28.3582 74.2161 23.9261 74.2161 21.1924 76.9498ZM7 47.44H13C16.866 47.44 20 50.574 20 54.44C20 58.306 16.866 61.44 13 61.44H7C3.13401 61.44 0 58.306 0 54.44C0 50.574 3.13401 47.44 7 47.44ZM29.2472 20.5357L25.0046 16.293C22.2709 13.5593 17.8388 13.5593 15.1051 16.293C12.3714 19.0267 12.3714 23.4588 15.1051 26.1925L19.3477 30.4352C22.0814 33.1688 26.5136 33.1688 29.2472 30.4352C31.9809 27.7015 31.9809 23.2693 29.2472 20.5357Z" fill="white"/>
</svg>
