<svg width="110" height="110" viewBox="0 0 110 110" fill="none" xmlns="http://www.w3.org/2000/svg">
<path fill-rule="evenodd" clip-rule="evenodd" d="M60.76 12V18C60.76 21.866 57.626 25 53.76 25C49.894 25 46.76 21.866 46.76 18V12C46.76 8.13401 49.894 5 53.76 5C57.626 5 60.76 8.13401 60.76 12ZM80.36 58.6C80.36 70.5309 72.249 80.5673 61.2403 83.496C60.125 82.3345 58.6964 81.3665 57 80.5C55.7688 74.2863 49.1691 69 42.5 69C38.9857 69 35.3548 70.0493 32.5882 71.9884C30.21 68.0868 28.84 63.5034 28.84 58.6C28.84 44.3731 40.3731 32.84 54.6 32.84C68.8269 32.84 80.36 44.3731 80.36 58.6ZM87.6644 34.2472L91.9071 30.0046C94.6407 27.2709 94.6407 22.8388 91.9071 20.1051C89.1734 17.3714 84.7412 17.3714 82.0076 20.1051L77.7649 24.3477C75.0313 27.0814 75.0313 31.5136 77.7649 34.2472C80.4986 36.9809 84.9308 36.9809 87.6644 34.2472ZM101.2 64.76H95.2C91.334 64.76 88.2 61.626 88.2 57.76C88.2 53.894 91.334 50.76 95.2 50.76H101.2C105.066 50.76 108.2 53.894 108.2 57.76C108.2 61.626 105.066 64.76 101.2 64.76ZM78.9528 91.6644L83.1954 95.907C85.9291 98.6407 90.3612 98.6407 93.0949 95.907C95.8286 93.1733 95.8286 88.7412 93.0949 86.0075L88.8523 81.7649C86.1186 79.0312 81.6864 79.0312 78.9528 81.7649C76.2191 84.4985 76.2191 88.9307 78.9528 91.6644ZM8 52.44H14C17.866 52.44 21 55.574 21 59.44C21 63.306 17.866 66.44 14 66.44H8C4.13401 66.44 1 63.306 1 59.44C1 55.574 4.13401 52.44 8 52.44ZM30.2472 25.5357L26.0046 21.293C23.2709 18.5593 18.8388 18.5593 16.1051 21.293C13.3714 24.0267 13.3714 28.4588 16.1051 31.1925L20.3477 35.4352C23.0814 38.1688 27.5136 38.1688 30.2472 35.4352C32.9809 32.7015 32.9809 28.2693 30.2472 25.5357ZM54.6065 83.2619C53.4652 77.4137 48.3138 73 42.1316 73C36.704 73 32.0709 76.402 30.2484 81.1899C26.9309 82.0442 24.0772 84.0536 22.1416 86.7637C20.9392 86.4373 19.6742 86.2632 18.3684 86.2632C10.433 86.2632 4 92.6961 4 100.632C4 101.392 4.05913 102.139 4.17305 102.868C4.37471 104.158 5.56269 105 6.86853 105H55.0651C55.6768 105 56.2805 104.821 56.7559 104.436C59.6338 102.106 61.4737 98.5441 61.4737 94.5526C61.4737 89.6396 58.6862 85.3776 54.6065 83.2619Z" fill="white"/>
</svg>
